<?xml version="1.0" encoding="UTF-8" standalone="no"?>
<!-- Generator: Adobe Illustrator 13.0.0, SVG Export Plug-In . SVG Version: 6.00 Build 14948)  -->

<svg
   xmlns:dc="http://purl.org/dc/elements/1.1/"
   xmlns:cc="http://creativecommons.org/ns#"
   xmlns:rdf="http://www.w3.org/1999/02/22-rdf-syntax-ns#"
   xmlns:svg="http://www.w3.org/2000/svg"
   xmlns="http://www.w3.org/2000/svg"
   xmlns:sodipodi="http://sodipodi.sourceforge.net/DTD/sodipodi-0.dtd"
   xmlns:inkscape="http://www.inkscape.org/namespaces/inkscape"
   version="1.1"
   id="Layer_1"
   x="0px"
   y="0px"
   width="123.024px"
   height="69.885px"
   viewBox="0 0 123.024 69.885"
   enable-background="new 0 0 123.024 69.885"
   xml:space="preserve"
   inkscape:version="0.91 r13725"
   sodipodi:docname="CACI_International_logo_white.svg"><metadata
     id="metadata4258"><rdf:RDF><cc:Work
         rdf:about=""><dc:format>image/svg+xml</dc:format><dc:type
           rdf:resource="http://purl.org/dc/dcmitype/StillImage" /><dc:title></dc:title></cc:Work></rdf:RDF></metadata><defs
     id="defs4256" /><sodipodi:namedview
     pagecolor="#ffffff"
     bordercolor="#666666"
     borderopacity="1"
     objecttolerance="10"
     gridtolerance="10"
     guidetolerance="10"
     inkscape:pageopacity="0"
     inkscape:pageshadow="2"
     inkscape:window-width="1366"
     inkscape:window-height="705"
     id="namedview4254"
     showgrid="true"
     showguides="false"
     inkscape:zoom="3.6212446"
     inkscape:cx="83.473521"
     inkscape:cy="63.748974"
     inkscape:window-x="0"
     inkscape:window-y="30"
     inkscape:window-maximized="1"
     inkscape:current-layer="g4218"><inkscape:grid
       type="xygrid"
       id="grid4260" /></sodipodi:namedview><g
     inkscape:groupmode="layer"
     id="layer2"
     inkscape:label="bg" /><g
     inkscape:groupmode="layer"
     id="layer1"
     inkscape:label="Layer 1"><g
       style=""
       id="g4218"><path
         d="M36.802,0.672l-0.018,13.909c-0.054,0.539-0.473,0.602-0.543,0.032c-0.533-7.73-9.608-14.922-18.12-11.838   C7.966,6.456,6.57,17.646,7.672,26.281c0.437,3.422,1.373,6.537,3.738,9.458c2.377,2.939,5.637,4.901,9.593,5.244   c6.431,0.554,12.169-2.406,15.732-7.401c0.093-0.135,0.393,0.07,0.351,0.155c-3.968,8.938-16.58,12.873-25.932,7.459   C-1.078,34.113-3.101,19.423,4.357,8.713C10.492-0.102,23.124-2.486,32.97,2.746c1.486,0.789,2.567-0.869,3.309-2.077L36.802,0.672   z"
         id="path4220"
         style="fill:#ffffff;fill-opacity:1" /><path
         d="M117.723,39.472c0,2.063,3.7,2.456,4.929,2.433v0.929h-16.923v-0.929c1.01,0.023,5.156-0.37,5.156-2.433V3.753   c0-2.792-4.594-2.455-5.156-2.556V0.265h16.923v0.933c-0.56,0.101-4.929-0.289-4.929,2.556V39.472z"
         id="path4222"
         style="fill-opacity:1;fill:#ffffff" /><path
         d="M104.723,0.672l-0.019,13.909c-0.057,0.539-0.476,0.602-0.546,0.032c-0.529-7.73-9.605-14.922-18.117-11.838   c-10.154,3.681-11.552,14.87-10.45,23.506c0.438,3.422,1.375,6.537,3.738,9.458c2.379,2.939,5.639,4.901,9.592,5.244   c6.432,0.554,12.17-2.406,15.732-7.401c0.093-0.135,0.396,0.07,0.354,0.155c-3.972,8.938-16.583,12.873-25.934,7.459   C66.84,34.113,64.819,19.423,72.279,8.713c6.134-8.814,18.768-11.199,28.613-5.967c1.484,0.789,2.563-0.869,3.308-2.077   L104.723,0.672z"
         id="path4224"
         style="fill:#ffffff;fill-opacity:1" /><path
         d="M46.141,26.446l6.043-14.5l6.427,14.5H46.141z M71.435,40.246L53.948,0.493L36.462,40.191   c-0.61,1.129-1.388,1.565-2.744,2.016v0.644l11.264,0.006v-0.649c-2.388-0.365-5.249-0.708-4.37-3.249l4.378-9.744l0.012-0.036   h14.819l0.013,0.028l4.483,10.312c0.952,2.353-2.826,2.692-4.541,2.689v0.652L75.3,42.851v-0.672   C74.348,42.179,72.332,42.15,71.435,40.246"
         id="path4226"
         style="fill:#ffffff;fill-opacity:1" /><rect
         x="2.461"
         y="49.487"
         width="120.563"
         height="4.08"
         id="rect4228"
         fill="#ED1C2E"
         style="fill:#ffffff;fill-opacity:1" /><path
         d="M5.819,64.51h2.122c1.259,0,1.754-0.114,1.85-1.376h0.287v3.275H9.791c-0.128-1.248-0.559-1.389-1.85-1.389H5.819v3.431   c0,0.581,0.192,0.708,0.861,0.708h2.17c1.404,0,1.915-0.581,2.743-1.842h0.304l-0.893,2.354H2.82v-0.255c1.5,0,1.5-0.354,1.5-1.545   v-5.786c0-1.19,0-1.545-1.5-1.545v-0.256h8.103l0.144,2.056h-0.319c-0.302-1.433-0.734-1.546-2.233-1.546H5.819V64.51z"
         id="path4230"
         style="fill:#ffffff;fill-opacity:1" /><path
         d="M20.227,62.467c0.128-0.269,0.431-0.949,0.431-1.219c0-0.511-0.654-0.666-1.117-0.708v-0.256h3.255v0.256   c-0.973,0.085-1.324,0.793-1.659,1.518l-3.606,7.827h-0.287l-3.876-7.929c-0.414-0.865-0.574-1.347-1.755-1.416v-0.256h4.323v0.256   c-0.494,0.057-1.181,0.069-1.181,0.665c0,0.37,0.287,0.879,0.447,1.206l2.601,5.345L20.227,62.467z"
         id="path4232"
         style="fill:#ffffff;fill-opacity:1" /><path
         d="M26.289,64.51h2.122c1.261,0,1.755-0.114,1.851-1.376h0.287v3.275h-0.287c-0.128-1.248-0.559-1.389-1.851-1.389h-2.122   v3.431c0,0.581,0.191,0.708,0.862,0.708h2.169c1.404,0,1.915-0.581,2.745-1.842h0.302l-0.893,2.354H23.29v-0.255   c1.5,0,1.5-0.354,1.5-1.545v-5.786c0-1.19,0-1.545-1.5-1.545v-0.256h8.104l0.143,2.056h-0.318   c-0.304-1.433-0.734-1.546-2.234-1.546h-2.696V64.51z"
         id="path4234"
         style="fill:#ffffff;fill-opacity:1" /><path
         d="M36.176,64.836h0.35c1.516,0,3.112-0.483,3.112-2.058c0-1.134-0.862-1.984-2.154-1.984c-0.447,0-0.877,0.07-1.308,0.127   V64.836z M40.85,69.671l-3.589-4.381h-1.085v2.581c0,1.19,0,1.545,1.5,1.545v0.255h-4.499v-0.255c1.499,0,1.499-0.354,1.499-1.545   v-5.787c0-1.19,0-1.544-1.499-1.544v-0.257h4.578c3.111,0,3.669,1.616,3.669,2.439c0,1.361-1.228,2.127-2.616,2.383l2.058,2.553   c0.782,0.964,1.355,1.658,2.807,1.758v0.255H40.85z"
         id="path4236"
         style="fill:#ffffff;fill-opacity:1" /><path
         d="M56.017,62.467c0.128-0.269,0.432-0.949,0.432-1.219c0-0.511-0.654-0.666-1.118-0.708v-0.256h3.255v0.256   c-0.973,0.085-1.324,0.793-1.658,1.518l-3.607,7.827h-0.286l-3.877-7.929c-0.415-0.865-0.574-1.347-1.754-1.416v-0.256h4.322v0.256   c-0.494,0.057-1.179,0.069-1.179,0.665c0,0.37,0.286,0.879,0.445,1.206l2.601,5.345L56.017,62.467z"
         id="path4238"
         style="fill:#ffffff;fill-opacity:1" /><path
         d="M62.244,67.871c0,1.19,0,1.545,1.5,1.545v0.255h-4.499v-0.255c1.499,0,1.499-0.354,1.499-1.545v-5.787   c0-1.19,0-1.544-1.499-1.544v-0.256h4.499v0.256c-1.5,0-1.5,0.354-1.5,1.544V67.871z"
         id="path4240"
         style="fill:#ffffff;fill-opacity:1" /><path
         d="M73.951,69.062c-1.101,0.538-2.36,0.822-3.639,0.822c-4.673,0-5.885-3.077-5.885-4.749c0-2.187,1.802-5.064,5.583-5.064   c0.78,0,1.372,0.129,1.963,0.313c0.238,0.071,0.781,0.285,0.988,0.285c0.351,0,0.383-0.356,0.398-0.598h0.287l0.272,2.964h-0.288   c-0.526-1.56-1.644-2.48-3.525-2.48c-2.681,0-3.892,2.141-3.892,4.268c0,2.709,1.689,4.58,4.098,4.58   c0.671,0,1.516-0.157,2.14-0.511v-2.537c0-1.192,0-1.546-1.501-1.546v-0.255h4.196v0.255c-1.022,0-1.196,0.327-1.196,1.317V69.062z   "
         id="path4242"
         style="fill:#ffffff;fill-opacity:1" /><path
         d="M79.097,67.915c0,1.191,0,1.546,1.501,1.546v0.255h-4.499v-0.255c1.499,0,1.499-0.354,1.499-1.546V62.13   c0-1.192,0-1.546-1.499-1.546v-0.256h4.499v0.256c-1.501,0-1.501,0.354-1.501,1.546V67.915z"
         id="path4244"
         style="fill:#ffffff;fill-opacity:1" /><path
         d="M84.978,67.872c0,0.708,0,1.235,0.718,1.235h2.361c1.276,0,2.073-0.468,2.743-1.986l0.256,0.043l-0.909,2.552H81.98v-0.255   c1.499,0,1.499-0.354,1.499-1.546v-5.786c0-1.19,0-1.545-1.499-1.545v-0.256h4.77v0.256c-1.771,0-1.771,0.411-1.771,1.688V67.872z"
         id="path4246"
         style="fill:#ffffff;fill-opacity:1" /><path
         d="M95.833,62.271L94,66.057h3.637L95.833,62.271z M93.759,66.567l-0.637,1.318c-0.129,0.243-0.351,0.682-0.351,0.951   c0,0.523,0.637,0.582,1.228,0.625v0.255H90.68v-0.255c0.83-0.072,1.165-0.439,1.645-1.434l3.796-7.913h0.287l3.59,7.658   c0.399,0.85,0.702,1.646,1.882,1.688v0.255h-4.164v-0.255c0.688-0.029,1.086-0.144,1.086-0.64c0-0.312-0.256-0.794-0.383-1.078   l-0.575-1.177H93.759z"
         id="path4248"
         style="fill:#ffffff;fill-opacity:1" /><path
         d="M104.65,67.915c0,1.191,0,1.546,1.499,1.546v0.255h-3.684v-0.255c1.499,0,1.499-0.354,1.499-1.546v-6.353   c-0.574-0.639-1.022-0.979-2.091-0.979v-0.256h2.871l6.43,7.02h0.03V62.13c0-1.192,0-1.546-1.498-1.546v-0.256h3.686v0.256   c-1.499,0-1.499,0.354-1.499,1.546v7.741h-0.287l-6.924-7.544h-0.032V67.915z"
         id="path4250"
         style="fill:#ffffff;fill-opacity:1" /><path
         d="M119.27,67.915c0,1.191,0,1.546,1.499,1.546v0.255h-4.499v-0.255c1.501,0,1.501-0.354,1.501-1.546v-6.978h-1.58   c-1.324,0-1.724,0.71-1.803,1.589h-0.287l0.111-2.198h8.614l0.111,2.198h-0.287c-0.079-0.879-0.479-1.589-1.802-1.589h-1.579   V67.915z"
         id="path4252"
         style="fill:#ffffff;fill-opacity:1" /></g></g></svg>