<?xml version="1.0" encoding="UTF-8" standalone="no"?>
<!-- Created with Inkscape (http://www.inkscape.org/) -->

<svg
   xmlns:dc="http://purl.org/dc/elements/1.1/"
   xmlns:cc="http://creativecommons.org/ns#"
   xmlns:rdf="http://www.w3.org/1999/02/22-rdf-syntax-ns#"
   xmlns:svg="http://www.w3.org/2000/svg"
   xmlns="http://www.w3.org/2000/svg"
   xmlns:sodipodi="http://sodipodi.sourceforge.net/DTD/sodipodi-0.dtd"
   xmlns:inkscape="http://www.inkscape.org/namespaces/inkscape"
   width="130mm"
   height="25mm"
   viewBox="0 0 130 25"
   version="1.1"
   id="svg8"
   inkscape:version="0.92.4 5da689c313, 2019-01-14"
   sodipodi:docname="GDIT.svg">
  <defs
     id="defs2" />
  <sodipodi:namedview
     id="base"
     pagecolor="#ffffff"
     bordercolor="#666666"
     borderopacity="1.0"
     inkscape:pageopacity="0.0"
     inkscape:pageshadow="2"
     inkscape:zoom="1.979899"
     inkscape:cx="225.97329"
     inkscape:cy="-44.052643"
     inkscape:document-units="mm"
     inkscape:current-layer="layer1"
     showgrid="true"
     inkscape:window-width="1920"
     inkscape:window-height="1043"
     inkscape:window-x="1920"
     inkscape:window-y="0"
     inkscape:window-maximized="1">
    <inkscape:grid
       type="xygrid"
       id="grid10"
       originx="-136"
       originy="-195" />
  </sodipodi:namedview>
  <metadata
     id="metadata5">
    <rdf:RDF>
      <cc:Work
         rdf:about="">
        <dc:format>image/svg+xml</dc:format>
        <dc:type
           rdf:resource="http://purl.org/dc/dcmitype/StillImage" />
        <dc:title></dc:title>
      </cc:Work>
    </rdf:RDF>
  </metadata>
  <g
     inkscape:label="Layer 1"
     inkscape:groupmode="layer"
     id="layer1"
     transform="translate(-136,-77)">
    <path
       id="path12"
       d="M 198.80164,83 H 186 v 13 h 12.80164 C 202.6482,96 206,93.772331 206,89.519446 206,85.263089 202.68073,83 198.80164,83 Z m 3.46822,19 H 178 V 77 h 24.26986 C 209.78122,77 216,81.900483 216,89.514931 216,97.062016 209.74675,102 202.26986,102 Z m -52.50312,0 C 142.26623,102 136,97.062084 136,89.515104 136,81.900415 142.23094,77 149.76674,77 H 173 v 5.995917 h -20.80319 c -4.04858,0 -7.57322,2.262878 -7.57322,6.519187 0,4.218462 3.52464,6.479604 7.57322,6.479604 h 12.32003 V 91.9825 h -9.15323 V 86.497701 H 173 V 102 Z M 219,102 h 8 V 77 h -8 z m 11,-25 v 5.995139 h 13.69637 V 102 h 8.60979 V 82.995139 H 266 V 77 Z"
       inkscape:connector-curvature="0"
       style="stroke-width:0.26458332;stroke:none;stroke-opacity:1;fill:#ffffff;fill-opacity:1" />
  </g>
</svg>
