<?xml version="1.0" encoding="utf-8"?>
<!-- Generator: Adobe Illustrator 23.0.6, SVG Export Plug-In . SVG Version: 6.00 Build 0)  -->
<svg version="1.1" id="Layer_1" xmlns="http://www.w3.org/2000/svg" xmlns:xlink="http://www.w3.org/1999/xlink" x="0px" y="0px"
	 viewBox="0 0 387.83 67.81" style="enable-background:new 0 0 387.83 67.81;" xml:space="preserve">
<style type="text/css">
	.st0{fill:#FFFFFF;}
	.st1{fill:#FFFFFF;stroke:#FFFFFF;stroke-miterlimit:10;}
</style>
<g>
	<path class="st0" d="M46.43,54.63V37.1c0-2.02-0.51-3.69-1.51-4.94c-1.03-1.29-2.58-1.94-4.6-1.94c-2.07,0-3.74,0.77-4.98,2.29
		c-1.21,1.49-1.83,3.43-1.83,5.79v16.34H23.08v-31.9h10.01v4.91h0.97l0.15-0.22c1.31-1.89,2.82-3.34,4.5-4.3
		c1.67-0.96,3.74-1.44,6.17-1.44c1.88,0,3.58,0.33,5.06,0.98c1.47,0.65,2.73,1.55,3.76,2.68c1.02,1.14,1.82,2.52,2.35,4.1
		c0.54,1.6,0.82,3.4,0.82,5.34v19.85H46.43z"/>
	<path class="st0" d="M44.88,22.18c1.81,0,3.45,0.31,4.86,0.93c1.4,0.62,2.61,1.48,3.59,2.56c0.98,1.08,1.74,2.41,2.25,3.93
		c0.52,1.55,0.79,3.29,0.79,5.18v19.35h-9.43V37.1c0-2.14-0.55-3.91-1.62-5.25c-1.13-1.41-2.81-2.13-4.99-2.13
		c-2.22,0-4.03,0.83-5.37,2.47c-1.29,1.58-1.94,3.63-1.94,6.1v15.84h-9.43v-30.9h9.01v3.91v1h1h0.21h0.52l0.3-0.43
		c1.26-1.83,2.72-3.23,4.34-4.15C40.55,22.64,42.54,22.18,44.88,22.18 M44.88,21.18c-2.52,0-4.66,0.5-6.42,1.51
		c-1.75,1.01-3.31,2.49-4.66,4.45h-0.21v-4.91H22.58v32.9h11.43V38.29c0-2.24,0.57-4.07,1.72-5.47c1.14-1.4,2.68-2.1,4.59-2.1
		c1.87,0,3.27,0.58,4.21,1.75c0.93,1.17,1.4,2.71,1.4,4.63v18.04h11.43V34.78c0-2.01-0.28-3.84-0.84-5.5
		c-0.56-1.66-1.38-3.08-2.45-4.28c-1.08-1.19-2.38-2.13-3.93-2.8C48.6,21.52,46.84,21.18,44.88,21.18L44.88,21.18z"/>
</g>
<g>
	<path class="st0" d="M65.01,54.63V29.02h-4.63v-6.29h4.63v-3.09c0-3.45,0.94-6.13,2.8-7.99c1.46-1.41,3.54-2.34,6.18-2.77
		c1.55-0.25,3.18-0.38,4.85-0.38c1.08,0,2.2,0.05,3.34,0.16v7.09c-0.25-0.01-0.5-0.01-0.74-0.01c-0.6,0-1.17,0.02-1.68,0.06
		c-0.9,0.08-1.67,0.27-2.29,0.58c-0.65,0.33-1.16,0.84-1.52,1.51c-0.34,0.66-0.51,1.51-0.51,2.58v2.25h6.73v6.29h-6.73v25.61H65.01z
		"/>
	<path class="st0" d="M78.83,9c0.92,0,1.88,0.04,2.84,0.12v6.13c-0.08,0-0.16,0-0.24,0c-0.61,0-1.19,0.02-1.72,0.07
		c-0.96,0.08-1.79,0.29-2.47,0.63c-0.75,0.38-1.33,0.96-1.74,1.73c-0.38,0.74-0.57,1.65-0.57,2.81v1.75v1h1h5.73v5.29h-5.73h-1v1
		v24.61h-9.43V29.52v-1h-1h-3.63v-5.29h3.63h1v-1v-2.59c0-3.31,0.89-5.88,2.64-7.63c1.39-1.34,3.38-2.23,5.91-2.64
		C75.59,9.12,77.2,9,78.83,9 M78.83,8c-1.7,0-3.34,0.13-4.93,0.38C71.15,8.83,69,9.8,67.46,11.29c-1.96,1.96-2.94,4.75-2.94,8.34
		v2.59h-4.63v7.29h4.63v25.61h11.43V29.52h6.73v-7.29h-6.73v-1.75c0-0.98,0.15-1.76,0.46-2.35c0.3-0.58,0.74-1.02,1.3-1.3
		c0.56-0.28,1.26-0.46,2.1-0.53c0.5-0.04,1.05-0.06,1.64-0.06c0.39,0,0.81,0.01,1.24,0.03V8.21C81.36,8.07,80.08,8,78.83,8L78.83,8z
		"/>
</g>
<g>
	<path class="st0" d="M102.87,55.86c-2.82,0-5.42-0.44-7.71-1.3c-2.29-0.86-4.27-2.06-5.9-3.59c-1.62-1.52-2.89-3.34-3.77-5.4
		c-0.88-2.07-1.33-4.34-1.33-6.77c0-2.42,0.45-4.7,1.33-6.77c0.88-2.06,2.15-3.88,3.77-5.4c1.63-1.52,3.61-2.73,5.9-3.59
		c2.29-0.86,4.89-1.3,7.71-1.3c2.82,0,5.42,0.44,7.71,1.3c2.29,0.86,4.26,2.06,5.86,3.59c1.6,1.52,2.86,3.34,3.74,5.4
		c0.88,2.07,1.33,4.34,1.33,6.77c0,2.42-0.45,4.7-1.33,6.77c-0.88,2.06-2.14,3.88-3.74,5.4c-1.6,1.52-3.58,2.73-5.86,3.59
		C108.28,55.42,105.69,55.86,102.87,55.86z M102.8,28.2c-2.69,0-4.74,1.01-6.09,3c-1.31,1.93-1.98,4.49-1.98,7.6
		c0,3.11,0.67,5.66,1.98,7.57c1.35,1.97,3.4,2.97,6.09,2.97c2.68,0,4.75-1,6.12-2.97c1.34-1.91,2.02-4.46,2.02-7.57
		c0-3.11-0.68-5.67-2.02-7.6C107.54,29.21,105.48,28.2,102.8,28.2z"/>
	<path class="st0" d="M102.87,22.25c2.76,0,5.3,0.43,7.54,1.26c2.22,0.83,4.14,2,5.69,3.48c1.55,1.48,2.77,3.24,3.63,5.24
		c0.85,2,1.29,4.21,1.29,6.57c0,2.36-0.43,4.57-1.29,6.57c-0.85,2-2.07,3.76-3.62,5.24c-1.56,1.48-3.47,2.65-5.69,3.48
		c-2.24,0.84-4.78,1.26-7.54,1.26c-2.76,0-5.3-0.43-7.54-1.26c-2.23-0.83-4.15-2.01-5.73-3.49c-1.57-1.47-2.8-3.23-3.66-5.23
		c-0.85-2-1.29-4.21-1.29-6.57c0-2.36,0.43-4.57,1.29-6.57c0.85-2,2.08-3.76,3.66-5.23c1.58-1.48,3.51-2.65,5.73-3.49
		C97.57,22.68,100.1,22.25,102.87,22.25 M102.8,49.84c2.86,0,5.06-1.07,6.53-3.18c1.4-2,2.11-4.64,2.11-7.86
		c0-3.21-0.71-5.87-2.11-7.89c-1.48-2.13-3.68-3.22-6.54-3.22c-2.86,0-5.05,1.08-6.51,3.22c-1.37,2.02-2.07,4.67-2.07,7.88
		c0,3.22,0.7,5.86,2.07,7.85C97.75,48.77,99.93,49.84,102.8,49.84 M102.87,21.25c-2.9,0-5.53,0.44-7.89,1.33
		c-2.36,0.89-4.38,2.12-6.07,3.69c-1.68,1.58-2.98,3.43-3.89,5.57s-1.37,4.46-1.37,6.96c0,2.51,0.46,4.83,1.37,6.96
		c0.91,2.14,2.21,3.99,3.89,5.57c1.68,1.58,3.7,2.81,6.07,3.69c2.36,0.88,4.99,1.33,7.89,1.33s5.53-0.44,7.89-1.33
		c2.36-0.88,4.37-2.12,6.03-3.69c1.66-1.58,2.95-3.43,3.86-5.57c0.91-2.14,1.37-4.46,1.37-6.96c0-2.5-0.46-4.83-1.37-6.96
		s-2.2-3.99-3.86-5.57c-1.66-1.58-3.67-2.81-6.03-3.69C108.39,21.69,105.76,21.25,102.87,21.25L102.87,21.25z M102.8,48.84
		c-2.52,0-4.42-0.92-5.68-2.75c-1.26-1.83-1.89-4.26-1.89-7.29c0-3.02,0.63-5.46,1.89-7.32c1.26-1.86,3.16-2.79,5.68-2.79
		c2.52,0,4.43,0.93,5.71,2.79c1.29,1.86,1.93,4.3,1.93,7.32c0,3.02-0.64,5.45-1.93,7.29C107.22,47.93,105.32,48.84,102.8,48.84
		L102.8,48.84z"/>
</g>
<g>
	<path class="st0" d="M126.37,54.63v-31.9h9.94v5.61h1l0.15-0.25c1.21-2.07,2.58-3.6,4.04-4.53c1.45-0.92,3.25-1.39,5.34-1.39
		c0.89,0,1.42,0.07,1.74,0.14v8.92c-0.69-0.1-1.42-0.15-2.1-0.15c-2.55,0-4.69,0.7-6.38,2.08c-2.19,1.8-3.3,4.77-3.3,8.84v12.63
		H126.37z"/>
	<path class="st0" d="M146.83,22.67c0.56,0,0.96,0.03,1.24,0.06v7.94c-0.55-0.05-1.09-0.08-1.6-0.08c-2.67,0-4.92,0.74-6.69,2.19
		c-2.31,1.9-3.49,5-3.49,9.22v12.13h-9.43v-30.9h8.94v4.61v1h1h0.21h0.57l0.29-0.49c1.18-2,2.48-3.47,3.88-4.36
		C143.13,23.11,144.84,22.67,146.83,22.67 M146.83,21.67c-2.2,0-4.07,0.49-5.61,1.47c-1.54,0.98-2.95,2.55-4.21,4.7h-0.21v-5.61
		h-10.94v32.9h11.43V42c0-3.93,1.04-6.74,3.12-8.45c1.6-1.31,3.62-1.97,6.06-1.97c0.74,0,1.51,0.06,2.32,0.18h0.28v-9.82
		C148.65,21.76,147.91,21.67,146.83,21.67L146.83,21.67z"/>
</g>
<g>
	<path class="st0" d="M197.54,54.63V36.82c0-2.07-0.45-3.69-1.33-4.83c-0.91-1.18-2.33-1.77-4.22-1.77c-1.98,0-3.54,0.75-4.61,2.24
		c-1.04,1.44-1.57,3.31-1.57,5.55v16.62h-10.43V36.82c0-2.07-0.45-3.69-1.33-4.83c-0.91-1.18-2.33-1.77-4.22-1.77
		c-1.94,0-3.47,0.75-4.57,2.24c-1.07,1.44-1.61,3.31-1.61,5.56v16.62h-10.43v-31.9h9.94v5.12h0.99l0.15-0.24
		c1.08-1.8,2.47-3.25,4.15-4.32c1.66-1.06,3.78-1.6,6.29-1.6c2.27,0,4.25,0.54,5.86,1.6c1.62,1.06,2.89,2.55,3.78,4.42l0.14,0.29
		h0.73l0.15-0.23c1.35-2.11,2.95-3.67,4.76-4.63c1.81-0.96,3.87-1.45,6.11-1.45c1.93,0,3.66,0.32,5.13,0.94
		c1.46,0.62,2.69,1.51,3.63,2.63c0.95,1.13,1.69,2.52,2.18,4.14c0.5,1.63,0.75,3.44,0.75,5.39v19.85H197.54z"/>
	<path class="st0" d="M196.26,22.18c1.86,0,3.53,0.3,4.94,0.9c1.39,0.59,2.55,1.43,3.45,2.49c0.91,1.08,1.61,2.41,2.09,3.96
		c0.48,1.58,0.73,3.35,0.73,5.25v19.35h-9.43V36.82c0-2.18-0.48-3.91-1.44-5.14c-1.01-1.3-2.56-1.96-4.61-1.96
		c-2.15,0-3.84,0.82-5.02,2.45c-1.1,1.52-1.66,3.49-1.66,5.84v16.12h-9.43V36.82c0-2.18-0.48-3.91-1.44-5.14
		c-1.01-1.3-2.56-1.96-4.61-1.96c-2.1,0-3.78,0.82-4.98,2.44c-1.13,1.53-1.7,3.49-1.7,5.85v16.12h-9.43v-30.9h8.94v4.12v1h1h0.21
		h0.57l0.29-0.49c1.04-1.73,2.38-3.13,3.99-4.16c1.58-1.01,3.61-1.53,6.02-1.53c2.17,0,4.05,0.51,5.59,1.52
		c1.54,1.01,2.76,2.44,3.61,4.22l0.27,0.57h0.63h0.14h0.55l0.29-0.46c1.3-2.04,2.84-3.54,4.57-4.46
		C192.13,22.65,194.1,22.18,196.26,22.18 M196.26,21.18c-2.34,0-4.45,0.5-6.35,1.51c-1.89,1.01-3.54,2.61-4.94,4.8h-0.14
		c-0.94-1.96-2.26-3.51-3.96-4.63c-1.71-1.12-3.75-1.68-6.14-1.68c-2.62,0-4.8,0.56-6.56,1.68c-1.75,1.12-3.19,2.62-4.31,4.49h-0.21
		v-5.12h-10.94v32.9h11.43V38.01c0-2.15,0.5-3.9,1.51-5.26c1-1.36,2.39-2.03,4.17-2.03c1.73,0,3,0.53,3.82,1.58
		c0.82,1.05,1.23,2.56,1.23,4.52v18.32h11.43V38.01c0-2.15,0.49-3.9,1.47-5.26c0.98-1.36,2.38-2.03,4.21-2.03
		c1.73,0,3,0.53,3.82,1.58c0.82,1.05,1.23,2.56,1.23,4.52v18.32h11.43V34.78c0-2.01-0.26-3.86-0.77-5.54
		c-0.52-1.68-1.27-3.12-2.28-4.31c-1.01-1.19-2.28-2.11-3.82-2.77C200.05,21.51,198.27,21.18,196.26,21.18L196.26,21.18z"/>
</g>
<g>
	<path class="st0" d="M231.18,55.86c-2.87,0-5.5-0.44-7.82-1.3c-2.31-0.86-4.28-2.07-5.86-3.59c-1.58-1.52-2.81-3.35-3.67-5.44
		c-0.86-2.09-1.29-4.39-1.29-6.82c0-2.39,0.44-4.65,1.29-6.72c0.86-2.07,2.09-3.89,3.67-5.41c1.58-1.53,3.48-2.74,5.66-3.59
		c2.18-0.86,4.64-1.3,7.32-1.3c2.5,0,4.77,0.36,6.74,1.07c1.97,0.71,3.72,1.71,5.21,2.96c2.07,1.75,3.64,4.01,4.66,6.71
		c0.97,2.58,1.47,5.46,1.48,8.57h-25.9l0.1,0.58c0.39,2.35,1.29,4.23,2.67,5.59c1.4,1.39,3.38,2.09,5.89,2.09
		c1.58,0,2.92-0.32,3.97-0.95c0.97-0.58,1.74-1.37,2.29-2.36h10.19c-0.38,1.22-1,2.4-1.84,3.51c-0.99,1.31-2.26,2.46-3.79,3.42
		c-1.46,0.97-3.09,1.71-4.88,2.21C235.46,55.6,233.42,55.86,231.18,55.86z M230.69,28.81c-2.33,0-4.15,0.69-5.42,2.05
		c-1.23,1.33-2.05,3.14-2.44,5.37l-0.1,0.59h15.32l-0.06-0.55c-0.25-2.25-1.02-4.07-2.31-5.41
		C234.37,29.5,232.69,28.81,230.69,28.81z"/>
	<path class="st0" d="M230.48,22.18c2.44,0,4.65,0.35,6.57,1.04c1.91,0.69,3.62,1.66,5.06,2.87c2.01,1.7,3.53,3.89,4.51,6.5
		c0.9,2.39,1.38,5.04,1.44,7.9h-24.8h-1.18l0.19,1.16c0.41,2.45,1.35,4.43,2.81,5.87c1.5,1.48,3.6,2.24,6.24,2.24
		c1.67,0,3.09-0.34,4.23-1.02c0.96-0.57,1.74-1.34,2.32-2.29h9.19c-0.37,0.94-0.88,1.84-1.54,2.71c-0.95,1.26-2.18,2.37-3.68,3.31
		c-1.4,0.93-2.99,1.65-4.73,2.14c-1.75,0.49-3.75,0.74-5.93,0.74c-2.81,0-5.38-0.43-7.65-1.27c-2.24-0.83-4.16-2.01-5.68-3.48
		c-1.53-1.47-2.72-3.25-3.56-5.27c-0.83-2.03-1.26-4.26-1.26-6.63c0-2.32,0.42-4.52,1.26-6.53c0.83-2,2.03-3.77,3.56-5.24
		c1.53-1.48,3.38-2.65,5.49-3.49C225.46,22.6,227.86,22.18,230.48,22.18 M222.14,37.33h1.19h14.16h1.11l-0.12-1.11
		c-0.26-2.37-1.08-4.28-2.45-5.7c-1.41-1.46-3.21-2.2-5.35-2.2c-2.48,0-4.42,0.75-5.78,2.21c-1.3,1.4-2.16,3.29-2.57,5.63
		L222.14,37.33 M230.48,21.18c-2.76,0-5.26,0.44-7.5,1.33c-2.24,0.89-4.18,2.12-5.82,3.7c-1.64,1.58-2.9,3.44-3.79,5.58
		c-0.89,2.14-1.33,4.45-1.33,6.91c0,2.51,0.44,4.85,1.33,7.01c0.89,2.16,2.15,4.03,3.79,5.61c1.64,1.58,3.65,2.81,6.03,3.7
		s5.05,1.33,7.99,1.33c2.29,0,4.36-0.26,6.21-0.78c1.85-0.52,3.52-1.28,5.01-2.27c1.59-0.99,2.9-2.17,3.93-3.54
		c1.03-1.36,1.73-2.8,2.1-4.32h-11.15c-0.51,1.04-1.26,1.85-2.24,2.43c-0.98,0.58-2.22,0.88-3.72,0.88c-2.38,0-4.23-0.65-5.54-1.95
		c-1.31-1.3-2.15-3.07-2.52-5.32h25.8c0.05-3.37-0.46-6.46-1.51-9.25s-2.65-5.09-4.8-6.91c-1.54-1.3-3.33-2.31-5.36-3.05
		C235.35,21.55,233.05,21.18,230.48,21.18L230.48,21.18z M223.33,36.33c0.37-2.15,1.14-3.86,2.31-5.12
		c1.17-1.26,2.85-1.89,5.05-1.89c1.87,0,3.41,0.63,4.63,1.89c1.21,1.26,1.94,2.97,2.17,5.12H223.33L223.33,36.33z"/>
</g>
<g>
	<path class="st0" d="M267.01,55.86c-2.21,0-4.27-0.4-6.12-1.18c-1.84-0.78-3.46-1.93-4.8-3.42c-1.35-1.49-2.41-3.33-3.16-5.48
		c-0.75-2.16-1.13-4.66-1.13-7.41c0-2.58,0.38-4.97,1.13-7.11c0.75-2.13,1.8-3.98,3.13-5.49c1.33-1.5,2.93-2.7,4.78-3.55
		c1.84-0.85,3.92-1.28,6.17-1.28c2.42,0,4.39,0.43,5.85,1.29c1.48,0.86,2.75,1.99,3.78,3.34l0.15,0.2h0.96V8.5h10.43v46.3h-9.94
		v-4.56h-0.92l-0.15,0.24c-1.02,1.68-2.41,3.01-4.13,3.96C271.33,55.38,269.3,55.86,267.01,55.86z M270.1,28.07
		c-2.45,0-4.38,0.97-5.74,2.89c-1.32,1.86-1.99,4.31-1.99,7.27c0,3.05,0.66,5.51,1.95,7.3c1.33,1.85,3.23,2.79,5.63,2.79
		c2.54,0,4.55-0.96,5.97-2.84c1.39-1.85,2.1-4.24,2.1-7.12c0-1.44-0.16-2.81-0.47-4.06c-0.32-1.27-0.82-2.38-1.48-3.28
		c-0.67-0.92-1.51-1.64-2.48-2.16C272.61,28.34,271.44,28.07,270.1,28.07z"/>
	<path class="st0" d="M287.68,9v45.3h-8.94v-3.56v-1h-1h-0.14h-0.56l-0.29,0.48c-0.98,1.61-2.3,2.88-3.94,3.78
		c-1.64,0.91-3.59,1.36-5.79,1.36c-2.14,0-4.13-0.38-5.92-1.14c-1.77-0.75-3.33-1.86-4.63-3.29c-1.31-1.44-2.33-3.22-3.06-5.31
		c-0.73-2.11-1.1-4.55-1.1-7.25c0-2.52,0.37-4.86,1.1-6.95c0.72-2.07,1.74-3.86,3.03-5.32c1.28-1.45,2.83-2.6,4.61-3.42
		c1.78-0.82,3.78-1.23,5.96-1.23c2.33,0,4.21,0.41,5.59,1.22c1.42,0.83,2.64,1.91,3.64,3.22l0.3,0.39h0.49h0.21h1v-1V9H287.68
		 M269.96,48.82c2.7,0,4.85-1.02,6.37-3.04c1.46-1.93,2.2-4.43,2.2-7.42c0-1.48-0.16-2.89-0.49-4.18c-0.34-1.33-0.86-2.5-1.57-3.46
		c-0.72-0.98-1.61-1.75-2.65-2.31c-1.05-0.56-2.31-0.84-3.73-0.84c-2.62,0-4.69,1.04-6.15,3.1c-1.38,1.95-2.08,4.49-2.08,7.56
		c0,3.16,0.69,5.71,2.05,7.6C265.35,47.81,267.38,48.82,269.96,48.82 M288.68,8h-11.43v17.27h-0.21c-1.08-1.41-2.38-2.57-3.93-3.47
		c-1.54-0.9-3.58-1.36-6.1-1.36c-2.34,0-4.46,0.44-6.38,1.32c-1.92,0.88-3.56,2.11-4.94,3.67c-1.38,1.57-2.45,3.45-3.22,5.66
		c-0.77,2.21-1.16,4.63-1.16,7.28c0,2.82,0.39,5.35,1.16,7.57c0.77,2.23,1.86,4.11,3.26,5.66c1.4,1.54,3.06,2.72,4.98,3.54
		c1.92,0.82,4.02,1.22,6.31,1.22c2.38,0,4.48-0.5,6.28-1.49c1.8-0.99,3.24-2.37,4.31-4.13h0.14v4.56h10.94V8L288.68,8z
		 M269.96,47.82c-2.24,0-3.99-0.86-5.22-2.58c-1.24-1.72-1.86-4.06-1.86-7.01c0-2.87,0.63-5.19,1.89-6.98
		c1.26-1.79,3.04-2.68,5.33-2.68c1.26,0,2.35,0.24,3.26,0.73c0.91,0.49,1.68,1.16,2.31,2.02c0.63,0.86,1.1,1.9,1.4,3.11
		c0.3,1.21,0.46,2.53,0.46,3.94c0,2.78-0.67,5.05-2,6.81C274.2,46.94,272.34,47.82,269.96,47.82L269.96,47.82z"/>
</g>
<g>
	<path class="st0" d="M346.78,62.69V21.67h9.94v4.08h0.95l0.15-0.19c1.17-1.48,2.62-2.67,4.33-3.55c1.7-0.88,3.77-1.33,6.15-1.33
		c2.3,0,4.38,0.44,6.2,1.3c1.82,0.87,3.39,2.08,4.67,3.62c1.29,1.55,2.28,3.4,2.96,5.5c0.68,2.11,1.03,4.44,1.03,6.92
		c0,2.65-0.37,5.09-1.09,7.25c-0.72,2.14-1.76,3.99-3.09,5.49c-1.33,1.5-2.93,2.66-4.77,3.46c-1.85,0.8-3.93,1.21-6.18,1.21
		c-2.25,0-4.19-0.39-5.78-1.17c-1.58-0.77-2.93-1.85-4-3.19l-0.15-0.19h-0.88v11.8H346.78z M364.86,28.31
		c-1.34,0-2.52,0.26-3.53,0.78c-1,0.52-1.85,1.24-2.52,2.16c-0.67,0.9-1.17,1.99-1.48,3.23c-0.31,1.22-0.47,2.54-0.47,3.94
		c0,2.87,0.71,5.22,2.11,6.99c1.42,1.81,3.48,2.73,6.11,2.73c2.35,0,4.22-0.89,5.55-2.63c1.3-1.71,1.96-4.09,1.96-7.08
		c0-2.98-0.62-5.42-1.84-7.26C369.49,29.27,367.51,28.31,364.86,28.31z"/>
	<path class="st0" d="M368.3,21.18c2.22,0,4.24,0.42,5.99,1.25c1.75,0.83,3.27,2.01,4.5,3.49c1.24,1.5,2.21,3.29,2.87,5.33
		c0.67,2.06,1,4.34,1,6.77c0,2.6-0.36,4.98-1.07,7.09c-0.7,2.08-1.71,3.87-2.99,5.32c-1.28,1.44-2.82,2.56-4.59,3.33
		c-1.78,0.78-3.8,1.17-5.98,1.17c-2.17,0-4.04-0.38-5.56-1.12c-1.52-0.74-2.81-1.77-3.83-3.05l-0.3-0.38h-0.48h-0.14h-1v1v10.8
		h-9.43V22.17h8.94v3.08v1h1h0.21h0.48l0.3-0.38c1.12-1.42,2.52-2.57,4.16-3.42C364,21.61,366,21.18,368.3,21.18 M365.07,48.64
		c2.52,0,4.52-0.95,5.95-2.83c1.37-1.79,2.06-4.28,2.06-7.39c0-3.08-0.65-5.62-1.92-7.53c-1.36-2.04-3.48-3.08-6.3-3.08
		c-1.42,0-2.68,0.28-3.75,0.84c-1.07,0.55-1.98,1.33-2.69,2.3c-0.71,0.96-1.23,2.1-1.57,3.41c-0.32,1.26-0.49,2.63-0.49,4.07
		c0,2.98,0.74,5.44,2.21,7.3C360.1,47.65,362.29,48.64,365.07,48.64 M368.3,20.18c-2.48,0-4.6,0.46-6.38,1.38
		c-1.78,0.92-3.27,2.15-4.49,3.69h-0.21v-4.08h-10.94v42.02h11.43v-11.8h0.14c1.12,1.41,2.51,2.51,4.17,3.33
		c1.66,0.81,3.66,1.22,6,1.22c2.34,0,4.46-0.42,6.38-1.25c1.92-0.83,3.56-2.03,4.94-3.59c1.38-1.56,2.44-3.45,3.19-5.66
		c0.75-2.22,1.12-4.68,1.12-7.41c0-2.55-0.35-4.91-1.05-7.08c-0.7-2.17-1.72-4.06-3.05-5.66c-1.33-1.6-2.95-2.85-4.84-3.75
		C372.82,20.63,370.68,20.18,368.3,20.18L368.3,20.18z M365.07,47.64c-2.48,0-4.38-0.84-5.71-2.54c-1.33-1.69-2-3.92-2-6.68
		c0-1.36,0.15-2.63,0.46-3.82c0.3-1.19,0.77-2.21,1.4-3.06c0.63-0.86,1.41-1.52,2.35-2.01c0.93-0.48,2.03-0.72,3.3-0.72
		c2.48,0,4.3,0.88,5.47,2.63c1.17,1.76,1.75,4.08,1.75,6.98c0,2.9-0.62,5.16-1.86,6.78C368.99,46.82,367.27,47.64,365.07,47.64
		L365.07,47.64z"/>
</g>
<g>
	<rect x="6.18" y="22.73" class="st0" width="10.43" height="31.9"/>
	<path class="st0" d="M16.11,23.23v30.9H6.68v-30.9H16.11 M17.11,22.23H5.68v32.9h11.43V22.23L17.11,22.23z"/>
</g>
<g>
	<g>
		<path class="st0" d="M11.4,17.01c-3.41,0-6.18-2.77-6.18-6.18c0-3.41,2.77-6.18,6.18-6.18s6.18,2.77,6.18,6.18
			C17.58,14.24,14.8,17.01,11.4,17.01z"/>
		<path class="st0" d="M11.4,5.15c3.13,0,5.68,2.55,5.68,5.68c0,3.13-2.55,5.68-5.68,5.68s-5.68-2.55-5.68-5.68
			C5.72,7.7,8.27,5.15,11.4,5.15 M11.4,4.15c-3.69,0-6.68,2.99-6.68,6.68c0,3.69,2.99,6.68,6.68,6.68s6.68-2.99,6.68-6.68
			C18.08,7.14,15.09,4.15,11.4,4.15L11.4,4.15z"/>
	</g>
</g>
<g>
	<g>
		<polygon class="st0" points="303.73,54.63 314.28,39.53 319.98,47.18 314.99,54.63 		"/>
		<path class="st0" d="M314.3,40.39l5.07,6.81l-4.65,6.94h-10.03L314.3,40.39 M314.27,38.68l-11.5,16.45h12.48l5.34-7.97
			L314.27,38.68L314.27,38.68z"/>
	</g>
	<g>
		<polygon class="st0" points="329.07,54.63 305.93,21.73 317.73,21.73 323.06,29.99 323.76,29.99 328.81,21.73 339.58,21.73 
			329.25,37.13 341.12,54.63 		"/>
		<path class="st0" d="M338.64,22.23l-9.61,14.34l-0.38,0.56l0.38,0.56l11.14,16.44h-10.85L309.2,25.51l-2.31-3.28h10.57l5.03,7.8
			l0.3,0.46h0.54h0.14h0.56l0.29-0.48l4.76-7.78H338.64 M340.52,21.23h-11.99l-5.05,8.26h-0.14l-5.33-8.26h-13.04l3.41,4.85
			l20.43,29.05h13.25l-12.2-18L340.52,21.23L340.52,21.23z"/>
	</g>
</g>
<path class="st1" d="M320.91,44.21"/>
</svg>
