<?xml version="1.0" encoding="UTF-8" standalone="no"?>
<!DOCTYPE svg PUBLIC "-//W3C//DTD SVG 1.1//EN" "http://www.w3.org/Graphics/SVG/1.1/DTD/svg11.dtd">
<svg width="100%" height="100%" viewBox="0 0 4575 1317" version="1.1" xmlns="http://www.w3.org/2000/svg" xmlns:xlink="http://www.w3.org/1999/xlink" xml:space="preserve" xmlns:serif="http://www.serif.com/" style="fill-rule:evenodd;clip-rule:evenodd;stroke-linejoin:round;stroke-miterlimit:2;">
    <g transform="matrix(1,0,0,1,37.5,37.5)">
        <g id="Layer-1" serif:id="Layer 1" transform="matrix(4.16667,0,0,4.16667,0,0)">
            <g transform="matrix(1,0,0,1,804.359,151.443)">
                <path d="M0,25.665C4.87,19.587 7.305,10.941 7.305,-0.271C7.305,-11.438 4.87,-20.072 0,-26.173C-4.87,-32.274 -11.45,-35.325 -19.74,-35.325C-28.03,-35.325 -34.645,-32.285 -39.583,-26.207C-44.521,-20.128 -46.989,-11.482 -46.989,-0.271C-46.989,10.941 -44.521,19.587 -39.583,25.665C-34.645,31.744 -28.03,34.783 -19.74,34.783C-11.45,34.783 -4.87,31.744 0,25.665M13.081,40.795C5.516,48.539 -5.425,52.412 -19.74,52.412C-34.056,52.412 -44.996,48.539 -52.562,40.795C-62.709,31.294 -67.783,17.605 -67.783,-0.271C-67.783,-18.507 -62.709,-32.195 -52.562,-41.336C-44.996,-49.081 -34.056,-52.953 -19.74,-52.953C-5.425,-52.953 5.516,-49.081 13.081,-41.336C23.184,-32.195 28.234,-18.507 28.234,-0.271C28.234,17.605 23.184,31.294 13.081,40.795M82.808,-2.23C80.203,-6.597 75.979,-8.781 70.135,-8.781C63.112,-8.781 58.288,-5.471 55.66,1.147C54.302,4.66 53.622,9.117 53.622,14.52C53.622,23.076 55.909,29.088 60.485,32.555C63.203,34.581 66.42,35.594 70.135,35.594C75.525,35.594 79.637,33.522 82.468,29.38C85.3,25.237 86.715,19.722 86.715,12.832C86.715,7.159 85.412,2.139 82.808,-2.23M97.689,-16.075C103.692,-9.727 106.693,-0.406 106.693,11.887C106.693,24.854 103.76,34.738 97.894,41.538C92.026,48.337 84.473,51.736 75.23,51.736C69.342,51.736 64.449,50.273 60.553,47.346C58.424,45.726 56.34,43.361 54.302,40.254L54.302,78.618L35.139,78.618L35.139,-23.978L53.689,-23.978L53.689,-13.104C55.773,-16.301 57.993,-18.822 60.35,-20.668C64.653,-23.955 69.771,-25.599 75.707,-25.599C84.359,-25.599 91.687,-22.424 97.689,-16.075M128.818,26.138C129.227,29.561 130.109,31.992 131.469,33.433C133.87,35.999 138.31,37.282 144.788,37.282C148.593,37.282 151.617,36.72 153.859,35.594C156.102,34.468 157.223,32.779 157.223,30.528C157.223,28.367 156.317,26.724 154.505,25.598C152.693,24.472 145.966,22.536 134.323,19.789C125.942,17.718 120.03,15.129 116.587,12.021C113.145,8.96 111.423,4.547 111.423,-1.216C111.423,-8.016 114.106,-13.858 119.476,-18.743C124.844,-23.629 132.397,-26.071 142.138,-26.071C151.379,-26.071 158.91,-24.237 164.732,-20.567C170.554,-16.897 173.895,-10.56 174.755,-1.554L155.389,-1.554C155.116,-4.03 154.414,-5.989 153.282,-7.43C151.152,-10.042 147.528,-11.348 142.409,-11.348C138.196,-11.348 135.195,-10.694 133.405,-9.389C131.616,-8.083 130.722,-6.552 130.722,-4.796C130.722,-2.589 131.673,-0.991 133.575,-0.001C135.479,1.035 142.205,2.813 153.758,5.335C161.459,7.137 167.235,9.86 171.086,13.508C174.891,17.2 176.794,21.815 176.794,27.353C176.794,34.648 174.064,40.603 168.605,45.219C163.146,49.834 154.709,52.142 143.293,52.142C131.65,52.142 123.054,49.699 117.505,44.813C111.955,39.928 109.181,33.703 109.181,26.138L128.818,26.138Z"/>
            </g>
            <g transform="matrix(1,0,0,1,393.882,203.424)">
                <path d="M0,-102.512L13.21,-45.214L16.056,-29.26L18.969,-44.874L30.215,-102.512L52.232,-102.512L64.088,-45.214L67.137,-29.26L70.186,-44.602L83.531,-102.512L104.736,-102.512L76.621,-2.443L56.704,-2.443L44.645,-60.964L41.122,-80.312L37.599,-60.964L25.541,-2.443L6.165,-2.443L-22.153,-102.512L0,-102.512ZM161.988,-75.967C165.715,-74.383 168.774,-71.962 171.168,-68.703C173.2,-65.942 174.442,-63.102 174.894,-60.183C175.346,-57.264 175.571,-52.5 175.571,-45.892L175.571,-2.443L155.857,-2.443L155.857,-47.454C155.857,-51.436 155.18,-54.65 153.825,-57.094C152.063,-60.534 148.722,-62.254 143.798,-62.254C138.695,-62.254 134.822,-60.545 132.18,-57.128C129.538,-53.711 128.217,-48.835 128.217,-42.498L128.217,-2.443L108.977,-2.443L108.977,-102.172L128.217,-102.172L128.217,-66.802C131.017,-71.102 134.257,-74.1 137.938,-75.798C141.619,-77.495 145.492,-78.344 149.557,-78.344C154.118,-78.344 158.263,-77.552 161.988,-75.967M206.505,-85.268L186.926,-85.268L186.926,-96.402L206.505,-96.402L206.505,-85.268ZM186.926,-76.442L206.505,-76.442L206.505,-2.443L186.926,-2.443L186.926,-76.442ZM210.678,-61.982L210.678,-75.763L220.975,-75.763L220.975,-96.402L240.079,-96.402L240.079,-75.763L252.07,-75.763L252.07,-61.982L240.079,-61.982L240.079,-22.878C240.079,-19.845 240.464,-17.956 241.231,-17.209C241.999,-16.463 244.348,-16.089 248.276,-16.089C248.864,-16.089 249.485,-16.1 250.14,-16.123C250.795,-16.145 251.438,-16.179 252.07,-16.224L252.07,-1.764L242.925,-1.425C233.802,-1.108 227.569,-2.692 224.227,-6.178C222.059,-8.395 220.975,-11.812 220.975,-16.429L220.975,-61.982L210.678,-61.982ZM276.263,-58.248C273.802,-55.442 272.255,-51.64 271.622,-46.843L301.634,-46.843C301.317,-51.957 299.771,-55.838 296.993,-58.486C294.216,-61.134 290.771,-62.457 286.662,-62.457C282.19,-62.457 278.725,-61.054 276.263,-58.248M303.26,-74.949C308.183,-72.64 312.247,-68.997 315.454,-64.019C318.345,-59.629 320.219,-54.537 321.077,-48.744C321.574,-45.349 321.777,-40.462 321.687,-34.08L271.148,-34.08C271.419,-26.657 273.745,-21.452 278.126,-18.466C280.79,-16.609 283.997,-15.681 287.746,-15.681C291.721,-15.681 294.949,-16.813 297.434,-19.076C298.788,-20.299 299.985,-21.996 301.024,-24.168L320.738,-24.168C320.241,-19.778 317.961,-15.32 313.896,-10.794C307.573,-3.597 298.721,0 287.34,0C277.945,0 269.657,-3.032 262.477,-9.096C255.295,-15.161 251.705,-25.028 251.705,-38.696C251.705,-51.505 254.945,-61.326 261.427,-68.16C267.907,-74.994 276.319,-78.411 286.662,-78.411C292.805,-78.411 298.337,-77.257 303.26,-74.949"/>
            </g>
            <g transform="matrix(1,0,0,1,207.708,251.432)">
                <path d="M0,-204.865C-56.481,-204.865 -102.433,-158.914 -102.433,-102.432C-102.433,-45.951 -56.481,0 0,0C56.482,0 102.433,-45.951 102.433,-102.432C102.433,-158.914 56.482,-204.865 0,-204.865M0,17C-65.855,17 -119.433,-36.577 -119.433,-102.432C-119.433,-168.287 -65.855,-221.865 0,-221.865C65.855,-221.865 119.433,-168.287 119.433,-102.432C119.433,-36.577 65.855,17 0,17" style="fill-rule:nonzero;"/>
            </g>
            <g transform="matrix(1,0,0,1,233.349,58.3094)">
                <path d="M0,181.381L0,0.001C-8.152,-2.3 -16.752,-3.532 -25.64,-3.532C-34.615,-3.532 -43.297,-2.276 -51.52,0.068L-51.52,181.314C-43.297,183.657 -34.615,184.913 -25.64,184.913C-16.752,184.913 -8.152,183.681 0,181.381" style="fill-rule:nonzero;"/>
            </g>
            <g transform="matrix(-0.986984,-0.160817,-0.160817,0.986984,232.57,217.056)">
                <path d="M-14.166,-143.251C-5.589,-148.574 3.857,-152.534 13.831,-154.893L-14.166,16.931C-22.876,11.529 -30.576,4.775 -37.019,-2.995L-14.166,-143.251Z" style="fill-rule:nonzero;"/>
            </g>
            <g transform="matrix(0.986984,0.160816,0.160816,-0.986984,134.57,217.057)">
                <path d="M11.594,-1.147C20.172,-6.469 29.617,-10.43 39.591,-12.788L11.594,159.036C2.885,153.633 -4.814,146.879 -11.259,139.109L11.594,-1.147Z" style="fill-rule:nonzero;"/>
            </g>
            <g transform="matrix(1,0,0,1,988.066,123.102)">
                <path d="M0,-0.768L0.864,-0.768C1.872,-0.768 2.688,-1.105 2.688,-1.92C2.688,-2.641 2.16,-3.121 1.008,-3.121C0.528,-3.121 0.192,-3.073 0,-3.025L0,-0.768ZM-0.048,3.696L-1.872,3.696L-1.872,-4.177C-1.152,-4.321 -0.145,-4.416 1.152,-4.416C2.64,-4.416 3.313,-4.177 3.889,-3.84C4.32,-3.504 4.656,-2.88 4.656,-2.113C4.656,-1.248 3.984,-0.577 3.024,-0.289L3.024,-0.193C3.792,0.095 4.225,0.671 4.464,1.728C4.704,2.928 4.849,3.408 5.04,3.696L3.072,3.696C2.832,3.408 2.688,2.688 2.448,1.776C2.304,0.912 1.824,0.528 0.816,0.528L-0.048,0.528L-0.048,3.696ZM-4.896,-0.432C-4.896,3.072 -2.305,5.856 1.248,5.856C4.704,5.856 7.249,3.072 7.249,-0.384C7.249,-3.889 4.704,-6.721 1.2,-6.721C-2.305,-6.721 -4.896,-3.889 -4.896,-0.432M9.265,-0.432C9.265,4.032 5.761,7.537 1.2,7.537C-3.313,7.537 -6.913,4.032 -6.913,-0.432C-6.913,-4.801 -3.313,-8.305 1.2,-8.305C5.761,-8.305 9.265,-4.801 9.265,-0.432" style="fill-rule:nonzero;"/>
            </g>
        </g>
    </g>
</svg>
